<svg width="248" height="134" viewBox="0 0 248 134" fill="none" xmlns="http://www.w3.org/2000/svg">
<path d="M-105 22.3333C-105 9.99898 -95.0238 0 -82.7176 0H123.688C135.994 0 145.97 9.99898 145.97 22.3333C145.97 34.1557 136.805 43.8327 125.207 44.6156C125.257 44.6325 125.307 44.6494 125.357 44.6667H102.958C90.6521 44.6667 80.6759 54.6656 80.6759 67C80.6759 79.3344 90.6521 89.3333 102.958 89.3333H225.718C238.024 89.3333 248 99.3323 248 111.667C248 124.001 238.024 134 225.718 134H6.41196C-5.89427 134 -15.8705 124.001 -15.8705 111.667C-15.8705 99.4345 -6.05876 89.4992 6.10674 89.3353L6.10072 89.3333H17.9574C30.2637 89.3333 40.2398 79.3344 40.2398 67C40.2398 54.6656 30.2637 44.6667 17.9574 44.6667H-82.7176C-95.0238 44.6667 -105 34.6677 -105 22.3333Z" fill="#F2F5FC"/>
</svg>
