<svg width="219" height="138" viewBox="0 0 219 138" fill="none" xmlns="http://www.w3.org/2000/svg">
<path d="M219 23C219 10.2975 208.685 0 195.96 0H-17.4618C-30.1864 0 -40.5017 10.2975 -40.5017 23C-40.5017 35.1753 -31.0248 45.1412 -19.0332 45.9474C-19.0847 45.9648 -19.1363 45.9823 -19.1878 46H3.97229C16.6969 46 27.0122 56.2975 27.0122 69C27.0122 81.7025 16.6969 92 3.97229 92H-122.96C-135.685 92 -146 102.297 -146 115C-146 127.703 -135.685 138 -122.96 138H103.801C116.525 138 126.841 127.703 126.841 115C126.841 102.403 116.695 92.1708 104.116 92.0021L104.122 92H91.8627C79.1381 92 68.8228 81.7025 68.8228 69C68.8228 56.2975 79.1381 46 91.8627 46H195.96C208.685 46 219 35.7025 219 23Z" fill="#F2F5FC"/>
</svg>
