<svg width="280" height="152" viewBox="0 0 280 152" fill="none" xmlns="http://www.w3.org/2000/svg">
<path d="M0 25.505C0 11.4189 11.5601 0 25.8202 0H267.183C281.443 0 293.003 11.4189 293.003 25.505C293.003 39.591 281.443 51.01 267.183 51.01H236.618C225.197 53.7258 216.71 63.8839 216.71 75.9999C216.71 88.0777 225.143 98.2098 236.51 100.964H386.167C400.434 100.964 412 112.389 412 126.482C412 140.575 400.434 152 386.167 152H130.237C115.969 152 104.403 140.575 104.403 126.482C104.403 112.389 115.969 100.964 130.237 100.964H149.714C161.082 98.2098 169.515 88.0777 169.515 75.9999C169.515 63.8839 161.028 53.7258 149.606 51.01H25.8202C11.5601 51.01 0 39.591 0 25.505Z" fill="#F2F5FC"/>
</svg>
