<svg width="281" height="158" viewBox="0 0 281 158" fill="none" xmlns="http://www.w3.org/2000/svg">
<path d="M0 26.3333C0 11.7898 11.7849 0 26.3223 0H270.15C284.687 0 296.472 11.7898 296.472 26.3333C296.472 40.2732 285.645 51.6834 271.945 52.6064C272.004 52.6264 272.063 52.6464 272.121 52.6667H245.662C231.124 52.6667 219.34 64.4565 219.34 79C219.34 93.5435 231.124 105.333 245.662 105.333H390.678C405.215 105.333 417 117.123 417 131.667C417 146.21 405.215 158 390.678 158H131.611C117.074 158 105.289 146.21 105.289 131.667C105.289 117.244 116.88 105.529 131.251 105.336L131.244 105.333H145.25C159.787 105.333 171.572 93.5435 171.572 79C171.572 64.4565 159.787 52.6667 145.25 52.6667H26.3223C11.7849 52.6667 0 40.8768 0 26.3333Z" fill="#F2F5FC"/>
</svg>
