<svg width="82" height="82" viewBox="0 0 82 82" fill="none" xmlns="http://www.w3.org/2000/svg">
<circle cx="41.0002" cy="41.0005" r="41" fill="#1FDE82"/>
<path d="M39.5574 43.0219C39.5574 46.2518 38.8987 48.7224 37.5812 50.4336C36.2637 52.1449 34.3348 53.0005 31.7947 53.0005C29.2861 53.0005 27.3678 52.1609 26.0398 50.4818C24.7117 48.8026 24.0319 46.3962 24.0002 43.2625V38.9631C24.0002 35.701 24.6643 33.2251 25.9923 31.5352C27.3309 29.8454 29.2545 29.0005 31.763 29.0005C34.2716 29.0005 36.1899 29.8401 37.5179 31.5192C38.846 33.1877 39.5258 35.5887 39.5574 38.7224V43.0219ZM34.9883 38.3053C34.9883 36.3695 34.7248 34.9631 34.1978 34.0861C33.6813 33.1983 32.8697 32.7545 31.763 32.7545C30.6879 32.7545 29.8922 33.177 29.3757 34.0219C28.8698 34.8561 28.601 36.1663 28.5694 37.9524V43.6315C28.5694 45.5352 28.8223 46.9524 29.3283 47.8828C29.8447 48.8026 30.6669 49.2625 31.7947 49.2625C32.9119 49.2625 33.7182 48.8187 34.2136 47.931C34.709 47.0433 34.9672 45.685 34.9883 43.8561V38.3053Z" fill="white"/>
<path d="M43.0122 41.193L44.3403 29.3213H57.2414V33.1877H48.0873L47.5181 38.209C48.6037 37.6208 49.7579 37.3267 50.9805 37.3267C53.1729 37.3267 54.8909 38.0165 56.1346 39.3962C57.3784 40.7759 58.0002 42.7064 58.0002 45.1877C58.0002 46.6957 57.684 48.0486 57.0516 49.2465C56.4298 50.4336 55.5339 51.3588 54.3639 52.0219C53.194 52.6743 51.8132 53.0005 50.2216 53.0005C48.8304 53.0005 47.5392 52.7171 46.3482 52.1502C45.1571 51.5727 44.2138 50.7652 43.5181 49.7278C42.833 48.6903 42.4694 47.5085 42.4272 46.1823H46.9489C47.0438 47.1556 47.3758 47.9149 47.945 48.4604C48.5247 48.9951 49.2783 49.2625 50.2058 49.2625C51.2388 49.2625 52.0345 48.8882 52.5932 48.1395C53.1518 47.3802 53.4311 46.3106 53.4311 44.931C53.4311 43.6048 53.1096 42.5887 52.4667 41.8828C51.8237 41.177 50.912 40.824 49.7315 40.824C48.6459 40.824 47.7658 41.1128 47.0912 41.6903L46.6486 42.1074L43.0122 41.193Z" fill="white"/>
</svg>
