<svg width="83" height="82" viewBox="0 0 83 82" fill="none" xmlns="http://www.w3.org/2000/svg">
<circle cx="41.3148" cy="40.9998" r="41" fill="#1FDE82"/>
<path d="M39.9782 43.0211C39.9782 46.2511 39.315 48.7217 37.9885 50.4329C36.662 52.1441 34.72 52.9998 32.1624 52.9998C29.6368 52.9998 27.7054 52.1602 26.3683 50.481C25.0311 48.8019 24.3467 46.3955 24.3148 43.2618L24.3148 38.9623C24.3148 35.7003 24.9834 33.2244 26.3205 31.5345C27.6682 29.8447 29.6049 28.9998 32.1306 28.9998C34.6563 28.9998 36.5877 29.8393 37.9248 31.5185C39.2619 33.1869 39.9464 35.588 39.9782 38.7217L39.9782 43.0211ZM35.3779 38.3046C35.3779 36.3687 35.1126 34.9623 34.582 34.0853C34.062 33.1976 33.2449 32.7538 32.1306 32.7538C31.0482 32.7538 30.247 33.1762 29.727 34.0211C29.2176 34.8554 28.947 36.1655 28.9152 37.9516L28.9152 43.6308C28.9152 45.5345 29.1698 46.9516 29.6792 47.8821C30.1992 48.8019 31.027 49.2618 32.1624 49.2618C33.2873 49.2618 34.0991 48.8179 34.5979 47.9302C35.0967 47.0425 35.3567 45.6842 35.3779 43.8554L35.3779 38.3046Z" fill="white"/>
<path d="M47.4587 38.9463L49.9101 38.9463C51.0774 38.9463 51.9423 38.6522 52.5047 38.0639C53.0672 37.4757 53.3484 36.6949 53.3484 35.7217C53.3484 34.7805 53.0672 34.0479 52.5047 33.5238C51.9529 32.9998 51.1888 32.7377 50.2125 32.7377C49.3317 32.7377 48.5942 32.9837 47.9999 33.4757C47.4056 33.957 47.1085 34.588 47.1085 35.3687L42.5081 35.3687C42.5081 34.1495 42.8318 33.0586 43.4792 32.096C44.1371 31.1228 45.0497 30.3634 46.2171 29.8179C47.395 29.2725 48.6897 28.9998 50.1011 28.9998C52.5525 28.9998 54.4733 29.5933 55.8634 30.7805C57.2536 31.957 57.9487 33.5826 57.9487 35.6575C57.9487 36.727 57.625 37.711 56.9777 38.6094C56.3304 39.5078 55.4814 40.1976 54.4308 40.6789C55.7361 41.1495 56.7071 41.8554 57.3438 42.7965C57.9911 43.7377 58.3148 44.85 58.3148 46.1334C58.3148 48.2083 57.5614 49.8714 56.0544 51.1228C54.5581 52.3741 52.5737 52.9998 50.1011 52.9998C47.7876 52.9998 45.8934 52.3848 44.4183 51.1548C42.9539 49.9249 42.2216 48.2992 42.2216 46.2778L46.822 46.2778C46.822 47.1548 47.1456 47.8714 47.793 48.4276C48.4509 48.9837 49.2574 49.2618 50.2125 49.2618C51.3055 49.2618 52.1598 48.973 52.7753 48.3955C53.4014 47.8072 53.7145 47.0318 53.7145 46.0693C53.7145 43.7377 52.441 42.5719 49.8941 42.5719L47.4587 42.5719L47.4587 38.9463Z" fill="white"/>
</svg>
