<svg width="82" height="82" viewBox="0 0 82 82" fill="none" xmlns="http://www.w3.org/2000/svg">
<circle cx="41" cy="41" r="41" fill="#1FDE82"/>
<path d="M39.5081 43.0214C39.5081 46.2513 38.8514 48.7219 37.5381 50.4332C36.2247 52.1444 34.302 53 31.7698 53C29.2692 53 27.3569 52.1604 26.0331 50.4813C24.7092 48.8021 24.0315 46.3957 24 43.262V38.9626C24 35.7005 24.6619 33.2246 25.9858 31.5348C27.3202 29.8449 29.2377 29 31.7383 29C34.2389 29 36.1512 29.8396 37.475 31.5187C38.7989 33.1872 39.4766 35.5882 39.5081 38.7219V43.0214ZM34.9534 38.3048C34.9534 36.369 34.6907 34.9626 34.1654 34.0856C33.6505 33.1979 32.8415 32.754 31.7383 32.754C30.6666 32.754 29.8733 33.1765 29.3585 34.0214C28.8542 34.8556 28.5862 36.1658 28.5547 37.9519V43.631C28.5547 45.5348 28.8069 46.9519 29.3112 47.8824C29.826 48.8021 30.6456 49.262 31.7698 49.262C32.8835 49.262 33.6873 48.8182 34.1811 47.9305C34.675 47.0428 34.9324 45.6845 34.9534 43.8556V38.3048Z" fill="white"/>
<path d="M58 52.6791H42.2712V49.5027L49.6943 41.4492C50.7135 40.3155 51.4647 39.3262 51.9481 38.4813C52.4419 37.6364 52.6888 36.8342 52.6888 36.0749C52.6888 35.0374 52.4314 34.2246 51.9165 33.6364C51.4017 33.0374 50.6662 32.738 49.7101 32.738C48.6804 32.738 47.8661 33.1016 47.2673 33.8289C46.6789 34.5455 46.3847 35.492 46.3847 36.6684H41.8142C41.8142 35.246 42.1452 33.9465 42.8071 32.7701C43.4795 31.5936 44.4251 30.6738 45.6439 30.0107C46.8627 29.3369 48.2444 29 49.7889 29C52.1529 29 53.9864 29.5775 55.2892 30.7326C56.6026 31.8877 57.2593 33.5187 57.2593 35.6257C57.2593 36.7807 56.9651 37.9572 56.3767 39.1551C55.7883 40.3529 54.7796 41.7487 53.3507 43.3422L48.1341 48.9412H58V52.6791Z" fill="white"/>
</svg>
