<svg width="82" height="82" viewBox="0 0 82 82" fill="none" xmlns="http://www.w3.org/2000/svg">
<circle cx="41" cy="41" r="41" fill="#1FDE82"/>
<path d="M41.3513 43.0214C41.3513 46.2513 40.7013 48.7219 39.4012 50.4332C38.1011 52.1444 36.1978 53 33.6913 53C31.2159 53 29.323 52.1604 28.0125 50.4813C26.702 48.8021 26.0312 46.3957 26 43.262V38.9626C26 35.7005 26.6552 33.2246 27.9657 31.5348C29.2866 29.8449 31.1847 29 33.6601 29C36.1354 29 38.0283 29.8396 39.3388 31.5187C40.6493 33.1872 41.3201 35.5882 41.3513 38.7219V43.0214ZM36.8427 38.3048C36.8427 36.369 36.5826 34.9626 36.0626 34.0856C35.553 33.1979 34.7521 32.754 33.6601 32.754C32.5992 32.754 31.814 33.1765 31.3043 34.0214C30.8051 34.8556 30.5399 36.1658 30.5087 37.9519V43.631C30.5087 45.5348 30.7583 46.9519 31.2575 47.8824C31.7672 48.8021 32.5784 49.262 33.6913 49.262C34.7937 49.262 35.5894 48.8182 36.0782 47.9305C36.567 47.0428 36.8219 45.6845 36.8427 43.8556V38.3048Z" fill="white"/>
<path d="M55 52.6791H50.4913V34.8075L45.109 36.5241V32.754L54.5164 29.2888H55V52.6791Z" fill="white"/>
</svg>
