<svg width="82" height="82" viewBox="0 0 82 82" fill="none" xmlns="http://www.w3.org/2000/svg">
<circle cx="41" cy="41" r="41" fill="#1FDE82"/>
<path d="M39.3559 43.0214C39.3559 46.2513 38.7056 48.7219 37.4052 50.4332C36.1047 52.1444 34.2008 53 31.6935 53C29.2175 53 27.324 52.1604 26.0131 50.4813C24.7023 48.8021 24.0312 46.3957 24 43.262V38.9626C24 35.7005 24.6554 33.2246 25.9663 31.5348C27.2876 29.8449 29.1862 29 31.6623 29C34.1384 29 36.0319 29.8396 37.3428 31.5187C38.6536 33.1872 39.3247 35.5882 39.3559 38.7219V43.0214ZM34.8459 38.3048C34.8459 36.369 34.5858 34.9626 34.0656 34.0856C33.5558 33.1979 32.7547 32.754 31.6623 32.754C30.6012 32.754 29.8157 33.1765 29.3059 34.0214C28.8065 34.8556 28.5412 36.1658 28.51 37.9519V43.631C28.51 45.5348 28.7597 46.9519 29.2591 47.8824C29.7689 48.8021 30.5803 49.262 31.6935 49.262C32.7963 49.262 33.5922 48.8182 34.0812 47.9305C34.5702 47.0428 34.8251 45.6845 34.8459 43.8556V38.3048Z" fill="white"/>
<path d="M55.4251 43.8877H58V47.6257H55.4251V52.6791H50.9151V47.6257H41.5986L41.3957 44.7059L50.8683 29.3209H55.4251V43.8877ZM45.8901 43.8877H50.9151V35.6417L50.6186 36.1711L45.8901 43.8877Z" fill="white"/>
</svg>
