<svg width="24" height="25" viewBox="0 0 24 25" fill="none" xmlns="http://www.w3.org/2000/svg">
<path d="M8 12.0625C9.93438 12.0625 11.5 10.4969 11.5 8.5625C11.5 6.62813 9.93438 5.0625 8 5.0625C6.06562 5.0625 4.5 6.62813 4.5 8.5625C4.5 10.4969 6.06562 12.0625 8 12.0625ZM10.4 13.0625H10.1406C9.49063 13.375 8.76875 13.5625 8 13.5625C7.23125 13.5625 6.5125 13.375 5.85938 13.0625H5.6C3.6125 13.0625 2 14.675 2 16.6625V17.5625C2 18.3906 2.67188 19.0625 3.5 19.0625H12.5C13.3281 19.0625 14 18.3906 14 17.5625V16.6625C14 14.675 12.3875 13.0625 10.4 13.0625ZM17 12.0625C18.6562 12.0625 20 10.7188 20 9.0625C20 7.40625 18.6562 6.0625 17 6.0625C15.3438 6.0625 14 7.40625 14 9.0625C14 10.7188 15.3438 12.0625 17 12.0625ZM18.5 13.0625H18.3813C17.9469 13.2125 17.4875 13.3125 17 13.3125C16.5125 13.3125 16.0531 13.2125 15.6187 13.0625H15.5C14.8625 13.0625 14.275 13.2469 13.7594 13.5438C14.5219 14.3656 15 15.4563 15 16.6625V17.8625C15 17.9313 14.9844 17.9969 14.9812 18.0625H20.5C21.3281 18.0625 22 17.3906 22 16.5625C22 14.6281 20.4344 13.0625 18.5 13.0625V13.0625Z" fill="#959BA1"/>
</svg>
