<svg width="24" height="24" viewBox="0 0 24 24" fill="none" xmlns="http://www.w3.org/2000/svg">
<path fill-rule="evenodd" clip-rule="evenodd" d="M12.4406 2.00158C14.9781 2.05049 17.2599 3.33021 18.5446 5.4249C19.8577 7.56599 19.8936 10.1379 18.6408 12.3047L13.3917 21.3823L13.3845 21.3943C13.1536 21.7736 12.7399 22 12.2779 22C11.8158 22 11.402 21.7736 11.1711 21.3943L11.1639 21.3823L5.91486 12.3047C4.66191 10.1379 4.69784 7.56599 6.01099 5.4249C7.29569 3.33021 9.57751 2.05049 12.1149 2.00158C12.2233 1.99947 12.3323 1.99947 12.4406 2.00158ZM9.30102 8.4125C9.30102 10.0529 10.6364 11.3875 12.2777 11.3875C13.9192 11.3875 15.2545 10.0529 15.2545 8.4125C15.2545 6.77208 13.9191 5.4375 12.2777 5.4375C10.6364 5.4375 9.30102 6.77208 9.30102 8.4125Z" fill="#E0E0E0"/>
</svg>
