<svg width="24" height="24" viewBox="0 0 24 24" fill="none" xmlns="http://www.w3.org/2000/svg">
<path fill-rule="evenodd" clip-rule="evenodd" d="M12 1C5.92545 1 1 5.92545 1 12C1 18.0746 5.92545 23 12 23C18.0746 23 23 18.0746 23 12C23 5.92545 18.0746 1 12 1ZM12 21.1339C6.9567 21.1339 2.86607 17.0433 2.86607 12C2.86607 6.9567 6.9567 2.86607 12 2.86607C17.0433 2.86607 21.1339 6.9567 21.1339 12C21.1339 17.0433 17.0433 21.1339 12 21.1339ZM13 6C13 5.44772 12.5523 5 12 5C11.4477 5 11 5.44772 11 6V12.1722C11.0002 12.9677 11.3164 13.7307 11.879 14.2932L14.2929 16.7071C14.6834 17.0976 15.3166 17.0976 15.7071 16.7071C16.0976 16.3166 16.0976 15.6834 15.7071 15.2929L13.293 12.8788C13.1055 12.6913 13.0001 12.4369 13 12.1718V6Z" fill="#E0E0E0"/>
</svg>
