<svg width="24" height="24" viewBox="0 0 24 24" fill="none" xmlns="http://www.w3.org/2000/svg">
<path d="M10 7.64C10.66 7.56 11.32 7.5 12 7.5C12.68 7.5 13.34 7.56 14 7.64V4.26C13.36 4.1 12.69 4 12 4C11.31 4 10.64 4.1 10 4.26L10 7.64ZM4.44 9.41C5.55 8.81 6.75 8.35 8 8.03L8 5.08C6.33172 6.04883 5.068 7.58589 4.44 9.41V9.41ZM10 9.66V14.34C10.66 14.44 11.32 14.5 12 14.5C12.68 14.5 13.35 14.44 14 14.34V9.66C13.35 9.57 12.68 9.5 12 9.5C11.32 9.5 10.66 9.57 10 9.66ZM4.04 12C5.24 12.83 6.57 13.5 8 13.91V10.09C6.57 10.5 5.24 11.17 4.04 12ZM16 16V18.92C17.6728 17.9611 18.9385 16.4252 19.56 14.6C18.45 15.2 17.25 15.65 16 16ZM8 18.92V16C6.75 15.65 5.55 15.2 4.44 14.6C5.06834 16.4214 6.33228 17.9552 8 18.92V18.92ZM10 19.74C10.64 19.9 11.31 20 12 20C12.69 20 13.36 19.9 14 19.74V16.36C13.34 16.44 12.68 16.5 12 16.5C11.32 16.5 10.66 16.44 10 16.36V19.74ZM19.97 12C18.77 11.17 17.43 10.5 16 10.09V13.91C17.43 13.5 18.77 12.83 19.97 12V12ZM16 5.08V8.03C17.2385 8.34298 18.4341 8.80643 19.56 9.41C18.93 7.57 17.66 6.04 16 5.08ZM22 12C22 17.53 17.5 22 12 22C9.34784 22 6.8043 20.9464 4.92893 19.0711C4.00035 18.1425 3.26375 17.0401 2.7612 15.8268C2.25866 14.6136 2 13.3132 2 12C2 9.34784 3.05357 6.8043 4.92893 4.92893C6.8043 3.05357 9.34784 2 12 2C13.3132 2 14.6136 2.25866 15.8268 2.7612C17.0401 3.26375 18.1425 4.00035 19.0711 4.92893C19.9997 5.85752 20.7362 6.95991 21.2388 8.17317C21.7413 9.38642 22 10.6868 22 12V12Z" fill="#E0E0E0"/>
</svg>
