<svg width="24" height="24" viewBox="0 0 24 24" fill="none" xmlns="http://www.w3.org/2000/svg">
<path fill-rule="evenodd" clip-rule="evenodd" d="M7 4C7 3.44772 6.55228 3 6 3C5.44772 3 5 3.44772 5 4V20C5 20.5523 5.44772 21 6 21C6.55228 21 7 20.5523 7 20V19.5V13.342C7.35078 13.2102 7.70526 13.0885 8.063 12.977C8.862 12.73 9.8 12.5 10.5 12.5C11.14 12.5 11.68 12.71 12.314 12.965L12.342 12.975C12.952 13.22 13.653 13.5 14.5 13.5C15.331 13.5 16.394 13.229 17.21 12.977C17.626 12.85 17.993 12.722 18.257 12.627C18.3902 12.5793 18.5225 12.5293 18.654 12.477L18.677 12.468L18.683 12.465L18.686 12.464C18.7787 12.4269 18.8581 12.3628 18.9141 12.2801C18.9701 12.1974 19 12.0999 19 12V4.5C18.9999 4.41792 18.9796 4.33712 18.9409 4.26475C18.9022 4.19237 18.8462 4.13064 18.778 4.085L18.31 4.038H18.309L18.305 4.04L18.286 4.047C17.8423 4.22204 17.3923 4.38081 16.937 4.523C16.138 4.77 15.2 5 14.5 5C13.828 5 13.286 4.788 12.664 4.537L12.621 4.519C12.024 4.277 11.34 4 10.5 4C9.67 4 8.606 4.272 7.79 4.522C7.496 4.612 7.226 4.703 7 4.782V4.5V4Z" fill="#757575"/>
</svg>
