<svg width="24" height="24" viewBox="0 0 24 24" fill="none" xmlns="http://www.w3.org/2000/svg">
<path d="M12.8371 21.906C12.3071 21.908 11.7971 21.696 11.4231 21.32L3.58607 13.485C3.38174 13.2813 3.22406 13.0358 3.12392 12.7652C3.02378 12.4947 2.98357 12.2056 3.00607 11.918L3.50607 5.352C3.54061 4.87398 3.7466 4.4245 4.08613 4.08626C4.42567 3.74801 4.87592 3.54373 5.35407 3.511L11.9201 3.011C11.9721 3 12.0231 3 12.0751 3C12.6051 3 13.1121 3.21 13.4851 3.586L21.3231 11.42C21.5089 11.6057 21.6563 11.8262 21.7568 12.0689C21.8574 12.3116 21.9091 12.5718 21.9091 12.8345C21.9091 13.0972 21.8574 13.3573 21.7568 13.6001C21.6563 13.8428 21.5089 14.0633 21.3231 14.249L14.2511 21.32C14.0658 21.5063 13.8455 21.654 13.6028 21.7546C13.36 21.8552 13.0998 21.9067 12.8371 21.906ZM8.59407 6.592C8.26518 6.59209 7.94139 6.6733 7.65137 6.82841C7.36136 6.98353 7.11407 7.20777 6.93142 7.48128C6.74877 7.75479 6.63639 8.06912 6.60423 8.39643C6.57207 8.72375 6.62112 9.05394 6.74705 9.35777C6.87298 9.6616 7.07189 9.92968 7.32617 10.1383C7.58044 10.3469 7.88224 10.4895 8.20482 10.5536C8.52741 10.6177 8.86082 10.6013 9.17553 10.5058C9.49025 10.4103 9.77654 10.2386 10.0091 10.006L10.0161 10L10.0231 9.993L10.0151 10C10.2931 9.71957 10.4818 9.36312 10.5575 8.97558C10.6333 8.58804 10.5926 8.18676 10.4406 7.82231C10.2887 7.45785 10.0322 7.14654 9.70361 6.92759C9.375 6.70865 8.98894 6.59188 8.59407 6.592V6.592Z" fill="#E0E0E0"/>
</svg>
