<?xml version="1.0" encoding="utf-8"?>
<!-- Generator: Adobe Illustrator 24.0.3, SVG Export Plug-In . SVG Version: 6.00 Build 0)  -->
<svg version="1.1" id="Layer_1" xmlns="http://www.w3.org/2000/svg" xmlns:xlink="http://www.w3.org/1999/xlink" x="0px" y="0px"
	 viewBox="0 0 65 65" style="enable-background:new 0 0 65 65;" xml:space="preserve">
<style type="text/css">
	.st0{fill:none;stroke:#4E5F80;stroke-width:3.96;}
	.st1{fill:#4E5F80;}
</style>
<title>畫板</title>
<desc>Created with Sketch.</desc>
<g id="Page-1">
	<g id="辦活動頁圖庫" transform="translate(-413.000000, -417.000000)">
		<g id="群組-48" transform="translate(413.000000, 417.000000)">
			<g id="群組-14" transform="translate(5.500000, 5.500000)">
				<g id="charity-copy" transform="translate(13.200000, 0.000000)">
					<path id="形狀_3_" class="st0" d="M31.7,1.1c1.3,1.5,2,3.5,2,5.6c0,2.5-1,5-2.7,6.7L18,26.1c-0.6,0.6-1.4,0.9-2.2,0.9
						c-0.8,0-1.6-0.3-2.2-0.9L0.7,13.3C-1,11.6-2,9.1-2,6.6c0-2.1,0.7-4.1,2-5.6c1.7-2,4.1-3,6.7-3c0.6,0,1.2,0.1,1.8,0.2
						c1.7,0.3,3.3,1.3,4.7,2.6l2.7,2.7l2.7-2.7c1.3-1.3,3-2.3,4.7-2.6C23.8-1.9,24.4-2,25-2C27.6-2,29.9-0.9,31.7,1.1"/>
				</g>
				<path id="形狀_1_" class="st1" d="M50.6,31c-1.3,0-2.6,0.6-3.6,1.6l-4.8,5.2c-0.6-2-2.5-3.5-4.7-3.5h-7.5
					c-1.1,0-2.1-0.4-2.9-1.1c-4.2-3.8-10.6-3.8-14.9-0.1c-0.9-1.3-2.3-2.1-4-2.1H1.6C0.7,31,0,31.8,0,32.7v19.8
					c0,0.9,0.7,1.6,1.6,1.6h6.7c1.5,0,2.8-0.7,3.7-1.7l1,0.3c3.3,0.9,6.7,1.4,10.1,1.4h14.5c3.6,0,7-1.7,9.1-4.6l7.8-10.6
					c0,0,0,0,0,0c0.6-0.9,1-1.9,1-3C55.4,33.2,53.3,31,50.6,31z M10,49.2c0,0.9-0.7,1.6-1.6,1.6H3.2V34.3h5.1c0.9,0,1.6,0.7,1.6,1.6
					V49.2z M51.9,37C51.9,37,51.9,37,51.9,37l-7.8,10.6c-1.5,2.1-4,3.3-6.5,3.3H23.1c-3.1,0-6.2-0.4-9.2-1.3l-0.6-0.2
					c0-0.1,0-0.1,0-0.2V36.7l1.1-1c3.1-2.7,7.7-2.7,10.7,0c1.4,1.2,3.2,1.9,5,1.9h7.5c0.9,0,1.6,0.7,1.6,1.6c0,0.9-0.7,1.6-1.6,1.6
					H26c-0.9,0-1.6,0.7-1.6,1.6c0,0.9,0.7,1.6,1.6,1.6h12.6c1.3,0,2.6-0.6,3.6-1.6l7.2-7.8c0.3-0.3,0.7-0.5,1.2-0.5
					c0.9,0,1.6,0.7,1.6,1.6C52.2,36.3,52.1,36.7,51.9,37z"/>
			</g>
		</g>
	</g>
</g>
</svg>
