<svg xmlns="http://www.w3.org/2000/svg" width="65" height="65" viewBox="0 0 65 65">
    <g fill="none" fill-rule="evenodd" stroke="#4D5E81" stroke-linecap="round" stroke-linejoin="round" stroke-width="3.96">
        <path d="M8.421 36.231l11.19-1.235 8.83 8.321-11.198 1.414-8.822-8.5zm8.849 8.531L28.43 43.32l-4.898 11.54-11.398 1.999 5.135-12.097z"/>
        <path d="M8.421 36.231l8.506 8.283-5.171 12.184-8.5-8.297zM24.93 23.126l11.19-1.234 8.83 8.32-11.198 1.415-8.822-8.5zm8.849 8.531l11.161-1.442-4.898 11.54-11.398 1.999 5.135-12.097z"/>
        <path d="M24.93 23.126l8.506 8.283-5.172 12.184-8.5-8.297zM41.105 9.343l11.19-1.235 8.831 8.321-11.199 1.414-8.822-8.5zm8.85 8.531l11.16-1.442-4.898 11.54L44.82 29.97l5.135-12.097z"/>
        <path d="M41.105 9.343l8.507 8.283L44.44 29.81l-8.5-8.297z"/>
    </g>
</svg>
