<svg xmlns="http://www.w3.org/2000/svg" width="65" height="65" viewBox="0 0 65 65">
    <g fill="none" fill-rule="evenodd">
        <path stroke="#4D5E81" stroke-width="3.762" d="M62.601 38.738c0 4.273-.296 6.833-1.167 8.757-.973 2.235-2.58 3.678-4.726 4.302-1.748.447-3.703.226-5.786-.566-2.214-.883-3.887-2.248-8.027-6.118l-.44-.412a129.3 129.3 0 0 0-1.371-1.264c-1.906-1.793-4.402-2.65-8.068-2.65-4 0-7.604 1.027-9.356 2.674-.514.466-1.025.974-1.58 1.566-.373.396-2.51 2.791-3.135 3.428-1.327 1.354-2.496 2.241-3.8 2.76-1.993.843-4.003 1.048-5.859.572-2.072-.575-3.647-2.011-4.688-4.222-.943-2.166-1.318-5.065-1.166-8.84.1-2.233 2.403-8.852 4.983-14.011 3.714-7.426 7.533-11.639 11.72-10.61.54.127 3.332.992 4.153 1.217 2.918.8 5.69 1.24 8.728 1.24 3.038 0 5.81-.44 8.727-1.24.821-.225 3.614-1.09 4.115-1.207 4.21-1.08 8.085 3.113 11.808 10.47 2.664 5.263 4.935 11.862 4.935 14.154z"/>
        <path stroke="#4D5E81" stroke-width="3.3" d="M19.14 23.76a2.64 2.64 0 0 1 2.64 2.64v1.98h1.98a2.64 2.64 0 0 1 0 5.28h-1.98v1.98a2.64 2.64 0 0 1-5.28 0v-1.98h-1.98a2.64 2.64 0 0 1 0-5.28h1.98V26.4a2.64 2.64 0 0 1 2.64-2.64z"/>
        <g fill="#4B5C83">
            <path d="M47.52 23.76a2.64 2.64 0 1 0 0 5.28 2.64 2.64 0 0 0 0-5.28zM47.52 39.6a2.64 2.64 0 1 0 0-5.28 2.64 2.64 0 0 0 0 5.28zM42.24 29.04a2.64 2.64 0 1 0 0 5.28 2.64 2.64 0 0 0 0-5.28zM52.8 34.32a2.64 2.64 0 1 0 0-5.28 2.64 2.64 0 0 0 0 5.28z"/>
        </g>
    </g>
</svg>
