<svg xmlns="http://www.w3.org/2000/svg" width="65" height="65" viewBox="0 0 65 65">
    <g fill="none" fill-rule="evenodd">
        <path stroke="#4E5F80" stroke-linecap="round" stroke-width="3.3" d="M56.973 32.444H45.16a.132.132 0 0 0-.1.045l-4.068 4.65a.132.132 0 0 1-.216-.023l-4.005-7.341a.132.132 0 0 0-.239.016l-3.987 10.502a.132.132 0 0 1-.25-.012l-4.01-14.772a.132.132 0 0 0-.253-.006l-4.017 12.449a.132.132 0 0 1-.232.037l-4.04-5.492a.132.132 0 0 0-.107-.053H7.92"/>
        <path stroke="#4D5E81" stroke-width="3.96" d="M45.024 10.56c-4.475 0-8.364 2.147-11.246 6.209-.57.802-1.385 2.449-1.438 2.349-.053-.1-.868-1.547-1.438-2.35-2.882-4.061-6.771-6.208-11.246-6.208-8.287 0-14.376 6.953-14.376 15.477 0 9.502 7.659 16.004 19.252 25.846 2.159 1.834 4.392 3.73 6.77 5.807a1.575 1.575 0 0 0 2.076 0 616.995 616.995 0 0 1 6.77-5.807C51.741 42.041 59.4 35.54 59.4 26.037c0-8.522-6.086-15.477-14.376-15.477z"/>
    </g>
</svg>
