<svg xmlns="http://www.w3.org/2000/svg" width="65" height="65" viewBox="0 0 65 65">
    <g fill="none" fill-rule="evenodd">
        <path stroke="#4E5F80" stroke-width="3.96" d="M36.962 5.127c-7.114-2.021-14.505 3.177-16.617 11.579a15.324 15.324 0 0 0-.43 4.52c-1.602-.84-3.388-1.239-5.242-1.073-6.026.538-10.335 6.81-9.717 14.02.618 7.209 7.449 12.599 11.955 12.086 4.079-.465 9.243-5.671 9.726-12.002.876.62 1.78 1.064 2.675 1.296 2.67.69 6.28-.096 9.49-2.097.344 6.268 5.27 11.559 9.293 12.16 4.485.67 11.5-4.478 12.37-11.661.869-7.183-3.219-13.603-9.223-14.35a9.35 9.35 0 0 0-4.766.66c.324-7.046-3.452-13.416-9.514-15.138z"/>
        <path stroke="#4E5F80" stroke-width="3.96" d="M37.397 4.925c5.338 1.48 10.896 10.637 8.637 19-2.26 8.364-9.74 13.432-16.817 11.287-7.078-2.144-10.896-10.636-8.637-19C22.84 7.85 32.06 3.446 37.397 4.925z"/>
        <path fill="#4E5F80" fill-rule="nonzero" d="M19.525 44.922l-.002-.002a1.426 1.426 0 0 0-2.003-.093 1.394 1.394 0 0 0-.092 1.98l.002.002c2.486 2.698 3.967 4.503 4.347 5.25.319.625.529 1.665.667 3.178.049.534.173 2.352.2 2.655.075.877.164 1.455.331 1.926.683 1.92.699 1.72 2.785 4.01l.002.002c.526.577 1.419.624 2.002.104a1.394 1.394 0 0 0 .103-1.98l-.002-.002c-1.854-2.035-1.672-1.537-2.212-3.057-.063-.176-.126-.586-.182-1.233-.023-.267-.148-2.095-.2-2.67-.17-1.845-.434-3.157-.96-4.19-.543-1.067-2.107-2.973-4.786-5.88zM11.382 28.687l.104-.159a1.2 1.2 0 0 0-.24-1.582.96.96 0 0 0-1.415.214l-.104.16c-.485.74-.813 1.347-.99 1.864-.179.517-.294 1.197-.368 2.08l-.016.19a.96.96 0 0 0 .983 1.04 1.2 1.2 0 0 0 1.163-1.1l.016-.188c.055-.654.133-1.113.21-1.337.077-.224.299-.633.657-1.182z"/>
        <path fill="#FFF" stroke="#4E5F80" stroke-width="2.112" d="M18.085 44.97l-1.05 1.718a.927.927 0 0 0 1.137 1.344l3.148-1.266a.927.927 0 0 0-.111-1.756l-1.956-.512a1.056 1.056 0 0 0-1.168.472z"/>
        <path fill="#4E5F80" fill-rule="nonzero" d="M45.529 44.189l.002-.002a1.426 1.426 0 0 1 2.005-.023 1.394 1.394 0 0 1 .023 1.982l-.002.002c-2.579 2.61-4.122 4.361-4.528 5.095-.34.614-.586 1.646-.777 3.153-.068.532-.255 2.345-.292 2.646-.106.874-.216 1.449-.4 1.914-.748 1.895.04 2.286-2.125 4.5l-.002.003a1.426 1.426 0 0 1-2.005.034 1.394 1.394 0 0 1-.034-1.982l.002-.002c1.924-1.97.929-2.07 1.521-3.57.069-.174.147-.581.225-1.226.032-.265.221-2.088.293-2.66.233-1.838.544-3.14 1.105-4.154.58-1.048 2.21-2.898 4.989-5.71z"/>
        <path fill="#FFF" stroke="#4E5F80" stroke-width="2.112" d="M46.987 44.973l.57 2.132a1.056 1.056 0 0 1-1.448 1.239l-2.54-1.123a1.056 1.056 0 0 1-.055-1.906l1.971-1.009a1.056 1.056 0 0 1 1.502.667z"/>
        <path fill="#4E5F80" fill-rule="nonzero" d="M32.927 35.306l-.006-.012a1.776 1.776 0 0 0-2.267-.947 1.63 1.63 0 0 0-.907 2.171l.006.013c1.78 4.08 2.76 6.733 2.899 7.732.115.837-.061 2.092-.51 3.846-.159.62-.747 2.71-.838 3.06-.266 1.016-.396 1.702-.392 2.301.014 2.443-.754 5.402.73 8.855l.004.012a1.776 1.776 0 0 0 2.262.96 1.63 1.63 0 0 0 .92-2.167l-.005-.012c-1.319-3.07-.443-5.611-.454-7.544-.001-.224.09-.71.286-1.46.081-.308.672-2.41.843-3.076.548-2.14.77-3.724.58-5.105-.197-1.428-1.233-4.229-3.151-8.627zM27.812 14.65l.332-.489c.38-.56.28-1.316-.231-1.759a1.055 1.055 0 0 0-1.564.205l-.33.489c-.7 1.031-1.17 1.876-1.42 2.6-.249.724-.399 1.68-.483 2.923l-.034.515a.985.985 0 0 0 1.156 1.036c.729-.13 1.276-.74 1.326-1.48l.034-.515c.062-.92.164-1.564.272-1.878.108-.314.425-.885.942-1.648z"/>
        <path fill="#FFF" stroke="#4E5F80" stroke-width="2.112" d="M31.537 34.954l-1.97 1.873a1.056 1.056 0 0 0 .733 1.822l4.13-.024a1.056 1.056 0 0 0 .68-1.858l-2.159-1.85a1.056 1.056 0 0 0-1.414.037z"/>
    </g>
</svg>
