<svg xmlns="http://www.w3.org/2000/svg" width="65" height="65" viewBox="0 0 65 65">
    <g fill="#4E5F80" fill-rule="evenodd">
        <path d="M50.515 36.233c.276.29.434.69.434 1.105 0 .41-.158.81-.434 1.1a1.47 1.47 0 0 1-1.054.455c-.393 0-.775-.166-1.051-.455a1.589 1.589 0 0 1-.44-1.1c0-.415.159-.816.44-1.105.553-.58 1.553-.58 2.105 0zm-12.61-12.828c0-.86.666-1.559 1.488-1.559h10.125c.823 0 1.489.698 1.489 1.56 0 .86-.666 1.558-1.488 1.558H39.394c-.823 0-1.489-.698-1.489-1.559zm0 6.683c0-.86.666-1.559 1.488-1.559h10.125c.823 0 1.489.698 1.489 1.56 0 .86-.666 1.558-1.488 1.558H39.394c-.823 0-1.489-.698-1.489-1.559zm-.237 7.13c0-.862.667-1.56 1.49-1.56h5.026c.822 0 1.49.698 1.49 1.56 0 .86-.668 1.559-1.49 1.559h-5.028c-.822 0-1.488-.698-1.488-1.56zM33.64 49.023s5.53-1.078 11.06-1.078 11.059 1.078 11.059 1.078v-32.08s-5.53-1.5-11.06-1.5-11.059 1.5-11.059 1.5v32.08zM31.94 13.38c-.94 0-1.701.799-1.701 1.782v35.645c0 .983.76 1.782 1.7 1.782h25.522c.94 0 1.701-.799 1.701-1.782V15.162c0-.983-.76-1.782-1.7-1.782 0 0-4.505-1.548-13.26-1.548-4.087 0-12.262 1.548-12.262 1.548z"/>
        <path d="M25.536 36.233c.275.29.433.69.433 1.105 0 .41-.158.81-.433 1.1a1.47 1.47 0 0 1-1.055.455c-.393 0-.775-.166-1.05-.455a1.589 1.589 0 0 1-.44-1.1c0-.415.158-.816.44-1.105.552-.58 1.552-.58 2.105 0zm-12.61-12.828c0-.86.665-1.559 1.487-1.559H24.54c.822 0 1.488.698 1.488 1.56 0 .86-.666 1.558-1.487 1.558H14.414c-.823 0-1.488-.698-1.488-1.559zm0 6.683c0-.86.665-1.559 1.487-1.559H24.54c.822 0 1.488.698 1.488 1.56 0 .86-.666 1.558-1.487 1.558H14.414c-.823 0-1.488-.698-1.488-1.559zm-.238 7.13c0-.862.667-1.56 1.49-1.56h5.026c.823 0 1.49.698 1.49 1.56 0 .86-.667 1.559-1.49 1.559h-5.027c-.823 0-1.489-.698-1.489-1.56zM8.662 49.023s5.53-1.078 11.059-1.078c5.53 0 11.059 1.078 11.059 1.078v-32.08s-5.53-1.5-11.06-1.5c-5.529 0-11.058 1.5-11.058 1.5v32.08zM19.72 11.832c-4.254 0-12.76 1.548-12.76 1.548-.94 0-1.702.799-1.702 1.782v35.645c0 .983.761 1.782 1.701 1.782h25.521c.94 0 1.702-.799 1.702-1.782V15.162c0-.983-.762-1.782-1.702-1.782 0 0-8.506-1.548-12.76-1.548z"/>
    </g>
</svg>
