<svg xmlns="http://www.w3.org/2000/svg" width="65" height="65" viewBox="0 0 65 65">
    <g fill="none" fill-rule="evenodd" transform="translate(4.4 3.3)">
        <path d="M25.08 22.64c1.76.002 3.187 1.389 3.19 3.1 0 1.7-1.442 3.081-3.19 3.081a3.224 3.224 0 0 1-2.252-.898 3.046 3.046 0 0 1-.937-2.183 3.05 3.05 0 0 1 .931-2.195 3.228 3.228 0 0 1 2.258-.906m0-19.999c-13.119 0-23.76 10.327-23.76 23.1 0 12.66 10.468 22.932 23.453 23.082.095.018.21.018.307.018.615 0 1.21-.018 1.825-.075a20.676 20.676 0 0 0 2.631-.336 4.978 4.978 0 0 1 3.496-1.4c.346 0 .691.037 1.038.092a19.012 19.012 0 0 0 2.362-1.082 17.115 17.115 0 0 0 1.614-.934c.076-.037.134-.092.21-.13a23.27 23.27 0 0 0 3.631-2.896 24.505 24.505 0 0 0 3.322-4.07c.392-.608.758-1.23 1.096-1.868.327-.634.614-1.269.883-1.941a4.251 4.251 0 0 1-.864.074h-4.437v-4.351h6.569c.116-.616.192-1.232.269-1.868.057-.616.095-1.232.095-1.866.02-.15.02-.3.02-.449 0-12.773-10.641-23.1-23.76-23.1"/>
        <path fill="#4E5F80" fill-rule="nonzero" d="M21.611 9.24c-6.027 1.358-10.732 5.94-12.29 12.002l-.081.338 3.692.86.071-.288c1.17-4.555 4.874-8.162 9.437-9.19l-.829-3.722z"/>
        <path fill="#4E5F80" fill-rule="nonzero" d="M50.869 30.628c-.271.632-.617 1.244-1.1 1.708a3.41 3.41 0 0 1-1.775.891 4.313 4.313 0 0 1-.868.074H42.67v-4.325h8.7a9.95 9.95 0 0 1-.502 1.652zm-8.199 7.63v-1.246h1.003c-.308.427-.637.854-1.004 1.245h.001zm-8.893 17.43c-2.779 0-5.036-2.191-5.036-4.864 0-.482.077-.946.212-1.373a4.675 4.675 0 0 1 1.312-2.08c.937-.9 2.2-1.4 3.512-1.392.346 0 .693.038 1.04.093a5.123 5.123 0 0 1 2.219 1.077 4.712 4.712 0 0 1 1.775 3.675c0 2.673-2.257 4.864-5.034 4.864zm-7.254-9.783c-.25.018-.482.018-.733.018-12.095 0-21.933-9.485-21.933-21.105 0-11.638 9.838-21.106 21.933-21.106s21.933 9.468 21.933 21.106v.445h-8.912v16.522c-.54.39-1.12.76-1.717 1.114-3.811-1.498-8.174-.257-10.572 3.007l.001-.001zM55.42 25.263h-3.859c.02-.148.02-.297.02-.445C51.582 11.119 40.008 0 25.791 0 11.574 0 0 11.12 0 24.818c0 13.42 11.13 24.392 24.98 24.8-.057.389-.096.798-.096 1.206 0 4.733 3.993 8.576 8.894 8.576 4.9 0 8.89-3.843 8.89-8.576v-7.257a25.412 25.412 0 0 0 5.615-6.626c1.64-.205 3.086-.891 4.225-1.987 2.893-2.803 2.932-7.351 2.932-7.852l-.019-1.839z"/>
        <circle cx="26.4" cy="25.08" r="5.28" fill-rule="nonzero" stroke="#4E5F80" stroke-width="3.96"/>
    </g>
</svg>
