<svg xmlns="http://www.w3.org/2000/svg" width="65" height="65" viewBox="0 0 65 65">
    <g fill="none" fill-rule="evenodd">
        <path stroke="#4C5D82" stroke-linecap="round" stroke-width="3.96" d="M33.559 45.804h14.99c.391 0 12.435-11.517 12.435-12.012V8.976c0-2.041-2.321-3.696-5.184-3.696H9.144c-2.863 0-5.184 1.655-5.184 3.696v32.076a4.752 4.752 0 0 0 4.752 4.752h4.042"/>
        <path stroke="#4B5C83" stroke-width="3.96" d="M51.413 33.728h6.983a1.188 1.188 0 0 1 .811 2.055l-9.358 8.753a1.188 1.188 0 0 1-2-.868v-6.376a3.564 3.564 0 0 1 3.564-3.564z"/>
        <g fill="#FFF" stroke="#4C5D82">
            <g transform="rotate(-35 53.12 1.432)">
                <path stroke-width="2.64" d="M2.495 14.782C2.495 8.2 6.653-3.01 6.653.754v29.938H2.495v-15.91z"/>
                <circle cx="4.769" cy="33.941" r="4.158" stroke-width="3.96"/>
            </g>
            <g transform="scale(-1 1) rotate(-35 29.238 77.172)">
                <path stroke-width="2.64" d="M2.495 14.782C2.495 8.2 6.653-3.01 6.653.754v29.938H2.495v-15.91z"/>
                <circle cx="4.769" cy="33.941" r="4.158" stroke-width="3.96"/>
            </g>
        </g>
        <path stroke="#4C5D82" stroke-dasharray="4.752" stroke-linecap="round" stroke-width="3.3" d="M30.316 22.028l26.73.028M24.156 10.204v22.572"/>
    </g>
</svg>
