<svg xmlns="http://www.w3.org/2000/svg" width="65" height="65" viewBox="0 0 65 65">
    <g fill="none" fill-rule="evenodd" stroke="#4E5F80">
        <g transform="translate(16.5 5.28)">
            <path stroke-width="3.3" d="M25.9 34.727l5.651 5.168a.396.396 0 0 1 .129.292v13.035a.396.396 0 0 1-.663.292L24 47.1l-.069.42H20.29c-1.244 3.532-3.542 7.92-4.449 7.92s-3.205-4.388-4.45-7.92H8.133a.396.396 0 0 1-.39-.333l-.021-.125-7.058 6.452A.396.396 0 0 1 0 53.222V40.187c0-.111.047-.217.129-.292l5.694-5.206C4.341 24.28 3.82 17.997 4.26 15.84 5.155 11.44 11.928 0 15.864 0 19.8 0 26.572 11.44 27.469 15.84c.44 2.16-.083 8.456-1.57 18.887z"/>
            <path stroke-width="3.3" d="M4.259 15.84C5.155 11.44 11.928 0 15.864 0 19.8 0 26.572 11.44 27.469 15.84c.598 2.933-.581 13.493-3.537 31.68h-15.8a.396.396 0 0 1-.39-.333C4.825 29.205 3.664 18.755 4.258 15.84z"/>
            <circle cx="15.84" cy="25.08" r="5.28" stroke-width="3.3"/>
            <path stroke-linecap="round" stroke-width="3.96" d="M6.6 13.2h18.48"/>
            <path stroke-linecap="round" stroke-width="3.3" d="M15.84 38.28v8.58"/>
        </g>
        <path stroke-linecap="round" stroke-width="1.98" d="M10.56 43.56v5.28M60.06 33v5.28M4.62 38.28v5.28M54.12 36.96v5.28M54.12 23.76v5.28M60.06 46.2v5.28M10.56 29.04v5.28M4.62 52.8v5.28"/>
    </g>
</svg>
