<svg xmlns="http://www.w3.org/2000/svg" width="65" height="65" viewBox="0 0 65 65">
    <g fill="none" fill-rule="evenodd">
        <path stroke="#4D5E81" stroke-width="3" d="M20.956 23.35c5.035.32 9.867 2.795 14.496 7.424 4.629 4.63 7.104 9.461 7.424 14.496L5.413 61.074a.2.2 0 0 1-.262-.262L20.956 23.35z"/>
        <path stroke="#4D5E81" stroke-linecap="round" stroke-width="3" d="M11.619 46.121c2.626 4.204 3.577 7.875 2.852 11.015"/>
        <path stroke="#4D5E81" stroke-linecap="square" stroke-width="3" d="M42.17 45.27c-4.757.272-9.55-2.006-14.379-6.835-4.83-4.83-7.107-9.622-6.835-14.378"/>
        <path stroke="#4D5E81" stroke-linecap="round" stroke-width="3" d="M16.507 37.62c3.997 6.396 5.444 11.983 4.34 16.76M29.12 49.977c-2.32-4.218-3.067-7.87-2.24-10.954M30.997 4.106c2.584 2.364 3.697 6.955 3.34 13.776-.358 6.82-2.608 11.015-6.75 12.587M48.874 35.783c-1.57-.96-3.674-1.086-6.313-.379-2.639.707-4.398 1.869-5.278 3.485M58.043 23.725c-1.314-1.288-3.336-1.885-6.066-1.79-2.73.096-4.705.832-5.926 2.209"/>
        <path stroke="#4D5E81" stroke-width="2" d="M18.778 9.5a.5.5 0 0 0-.707 0l-1.414 1.414L15.243 9.5a.5.5 0 0 0-.707.707l1.412 1.413-.705.707-.707.709a.5.5 0 0 0 .707.707l1.414-1.414 1.414 1.414a.5.5 0 0 0 .707-.707l-1.414-1.414 1.414-1.415a.5.5 0 0 0 0-.707zM56.962 44.856a.5.5 0 0 0-.707 0L54.84 46.27l-1.415-1.414a.5.5 0 0 0-.707.707l1.413 1.412-.706.708-.707.708a.5.5 0 0 0 .707.707l1.415-1.414 1.414 1.414a.5.5 0 1 0 .707-.707l-1.414-1.414 1.414-1.414a.5.5 0 0 0 0-.707z"/>
        <path fill="#4B5C83" d="M56.51 33.485a2.64 2.64 0 1 0 3.733-3.733 2.64 2.64 0 0 0-3.733 3.733zM37.418 25.707a2.64 2.64 0 1 0 3.733-3.733 2.64 2.64 0 0 0-3.733 3.733zM41.66 12.98a2.64 2.64 0 1 0 3.733-3.734 2.64 2.64 0 0 0-3.733 3.733zM25.397 13.686a2.64 2.64 0 1 0 3.733-3.733 2.64 2.64 0 0 0-3.733 3.733z"/>
    </g>
</svg>
