<svg xmlns="http://www.w3.org/2000/svg" width="65" height="65" viewBox="0 0 65 65">
    <g fill="none" fill-rule="evenodd" stroke="#4D5E81" stroke-width="3.96" transform="translate(9.24 6.6)">
        <path stroke-linecap="round" d="M4.884 50.688l8.712-10.296M30.228 50.688l-8.712-10.296"/>
        <path d="M31.152 19.8a3.168 3.168 0 0 1 3.168 3.168v4.097a3.19 3.19 0 0 1 .114-.038l12.677-3.947a1.584 1.584 0 0 1 2.055 1.512v11.536a1.584 1.584 0 0 1-2.055 1.512l-12.677-3.947-.114-.04v1.987a3.168 3.168 0 0 1-3.168 3.168H3.168A3.168 3.168 0 0 1 0 35.64V22.968A3.168 3.168 0 0 1 3.168 19.8h27.984z"/>
        <rect width="34.32" height="19.008" y="19.8" rx="3.168"/>
        <circle cx="6.864" cy="8.976" r="5.544"/>
        <circle cx="26.532" cy="7.26" r="7.26"/>
    </g>
</svg>
