<svg xmlns="http://www.w3.org/2000/svg" width="65" height="65" viewBox="0 0 65 65">
    <g fill="none" fill-rule="evenodd" stroke="#4E5F80">
        <path stroke-width="3.96" d="M31.73 15.84c8.998 0 15.927 10.979 9.83 19.578-6.097 8.6-2.033 10.062-3.613 10.062H25.57c-1.637 0 2.11-1.81-3.613-10.062-5.724-8.251.773-19.578 9.772-19.578z"/>
        <path stroke-linecap="round" stroke-width="3.96" d="M33.008 23.22c1.137.142 2.13.636 2.976 1.482.846.847 1.347 1.846 1.504 2.998"/>
        <path stroke-linecap="round" stroke-width="2.64" d="M43.56 14.532l3.479-3.972M31.68 8.975l.092-6.335M19.32 14.532l-3.48-3.972M9.24 21.12l5.236.682M54.076 21.648l-5.236.682"/>
        <path stroke-linecap="round" stroke-width="3.3" d="M26.674 50.688h10.56M26.674 55.44h10.56M30.896 59.867h2.112"/>
    </g>
</svg>
