<svg xmlns="http://www.w3.org/2000/svg" width="65" height="65" viewBox="0 0 65 65">
    <g fill="none" fill-rule="evenodd" stroke="#4D5E81" stroke-width="3.96" transform="translate(3.96 5.28)">
        <path stroke-linecap="square" d="M11.88 19.335l3.96 3.105M26.4 23.76l5.28-3.96M39.6 13.2l6.6-5.28"/>
        <path d="M6.583 19.64a3.8 3.8 0 1 0 0-7.6 3.8 3.8 0 0 0 0 7.6zM21.008 28.72a3.8 3.8 0 1 0 0-7.6 3.8 3.8 0 0 0 0 7.6zM35.173 19.48a3.8 3.8 0 1 0 0-7.6 3.8 3.8 0 0 0 0 7.6zM49.953 7.6a3.8 3.8 0 1 0 0-7.6 3.8 3.8 0 0 0 0 7.6zM3.3 53.46h6.6V34.32a3.3 3.3 0 1 0-6.6 0v19.14z"/>
        <rect width="52.8" height="1" x="1.98" y="53.46" rx=".5"/>
        <path d="M17.82 53.46h6.6V42.24a3.3 3.3 0 1 0-6.6 0v11.22zM32.34 53.46h6.6V34.32a3.3 3.3 0 1 0-6.6 0v19.14zM46.86 53.46h6.6v-29.7a3.3 3.3 0 1 0-6.6 0v29.7z"/>
    </g>
</svg>
