<svg xmlns="http://www.w3.org/2000/svg" width="65" height="65" viewBox="0 0 65 65">
    <path fill="#4E5F80" fill-rule="evenodd" d="M11.867 50.271h-.004c.068 1.71.587 2.115 2.098 2.158 2.73.028 34.132 0 35.416-.02 1.493-.047 2.024-.58 2.112-2.035 0 0-25.044.076-39.622-.104v.001zm8.34-8.622l-8.313-.018c-1.287.018-2.156.978-2.211 2.046-.057 1.13.778 2.23 2.211 2.274h39.617c1.418-.073 2.222-1.164 2.167-2.274-.059-1.058-.963-1.987-2.198-2.037-2.86-.035-14.101.007-14.418.009-1.15.006-2.174.599-2.851.991-1.958 1.127-3.492 2.266-5.835 2.242-2.605-.026-4.008-1.19-5.653-2.21-.637-.392-1.387-1.03-2.516-1.023zm15.547-7.603c-1.194.586-2.549 1.25-4.043 1.25-1.491 0-2.845-.664-4.041-1.25-2.458-1.202-2.671-1.204-5.13 0-1.197.586-2.55 1.25-4.044 1.25-1.49 0-2.847-.664-4.042-1.25-2.204-1.077-3.238-1.632-6.494.897-.29.229-.648.354-1.017.354-.857 0-1.662-.671-1.662-1.62 0-.472.21-.944.62-1.26 4.577-3.588 7.126-2.688 10.03-1.265.954.467 1.854.908 2.565.908.712 0 1.615-.441 2.565-.908 3.394-1.66 4.664-1.676 8.087 0 .952.467 1.854.908 2.563.908.713 0 1.615-.441 2.565-.908 3.395-1.66 4.662-1.676 8.087 0 .957.467 1.855.908 2.566.908.71 0 1.61-.441 2.567-.908 2.862-1.402 5.443-2.354 9.978 1.275.399.32.606.785.606 1.25 0 .89-.733 1.616-1.652 1.616-.366 0-.735-.118-1.046-.363-3.16-2.52-4.207-1.961-6.41-.884-1.197.586-2.552 1.25-4.043 1.25-1.492 0-2.845-.664-4.042-1.25-2.464-1.202-2.669-1.204-5.133 0zM7.481 28.674C7.567 17.029 18.105 9.24 31.908 9.24c12.437 0 23.883 7.223 23.973 19.434h-48.4zm23.9-15.12c-8.021.11-16.102 3.412-18.76 10.758l-.015.041h38.148c-2.616-7.534-11.218-10.828-19.373-10.799zm-5.2 6.48c.607 0 1.1.484 1.1 1.08 0 .594-.493 1.08-1.1 1.08-.608 0-1.1-.486-1.1-1.08 0-.596.492-1.08 1.1-1.08zm11 0c.606 0 1.1.484 1.1 1.08 0 .594-.494 1.08-1.1 1.08-.611 0-1.1-.486-1.1-1.08 0-.596.49-1.08 1.1-1.08zm8.8 0c.606 0 1.1.484 1.1 1.08 0 .594-.494 1.08-1.1 1.08-.611 0-1.1-.486-1.1-1.08 0-.596.49-1.08 1.1-1.08zm-26.4 0c.607 0 1.1.484 1.1 1.08 0 .594-.493 1.08-1.1 1.08-.608 0-1.1-.486-1.1-1.08 0-.596.492-1.08 1.1-1.08zm11-2.16c.607 0 1.1.484 1.1 1.08 0 .594-.493 1.08-1.1 1.08-.608 0-1.1-.486-1.1-1.08 0-.596.492-1.08 1.1-1.08zm11 0c.606 0 1.1.484 1.1 1.08 0 .594-.494 1.08-1.1 1.08-.611 0-1.1-.486-1.1-1.08 0-.596.49-1.08 1.1-1.08zm-17.6-2.16c.607 0 1.1.484 1.1 1.08 0 .594-.493 1.08-1.1 1.08-.608 0-1.1-.486-1.1-1.08 0-.596.492-1.08 1.1-1.08zm11 0c.606 0 1.1.484 1.1 1.08 0 .594-.494 1.08-1.1 1.08-.611 0-1.1-.486-1.1-1.08 0-.596.49-1.08 1.1-1.08zm-23.271 21.6c.38-.005 8.312.01 8.97.014 3.174.02 5.328 3.612 7.717 3.6 2.13-.01 5.025-3.595 8.173-3.6.393-.002 13.616-.034 15.079-.015 3.64.132 6.254 2.916 6.42 6.148.106 2.01-.743 3.914-2.267 5.223.607 5.039-2.033 7.896-6.316 8.046-1.32.019-32.852.046-35.614.019-4.77-.147-6.843-3.345-6.335-8.085-1.518-1.309-2.354-3.208-2.248-5.203.167-3.232 2.78-6.016 6.42-6.147z"/>
</svg>
