<svg xmlns="http://www.w3.org/2000/svg" width="65" height="65" viewBox="0 0 65 65">
    <g fill="none" fill-rule="nonzero" stroke="#4D5E81" stroke-width="3.96">
        <path d="M47.916 45.808c-.101 5.575-3.415 7.592-6.932 7.405-3.517-.186-5.963-1.648-8.46-1.648l-.103.051c-2.498 0-4.944 1.514-8.461 1.7-3.517.186-6.83-1.73-6.932-7.305.204-5.118 4.553-5.495 8.257-11.541 3.262-5.325 7.136-4.894 7.136-4.894h.102s3.907-.407 7.136 4.894c3.686 6.055 8.053 6.22 8.257 11.338zM24.127 24.805c2.936-.212 5.063-3.57 4.75-7.502-.312-3.93-2.945-6.945-5.88-6.732-2.936.212-5.063 3.571-4.75 7.502.312 3.93 2.944 6.945 5.88 6.732zM39.474 24.684c2.757.75 5.847-1.772 6.9-5.636 1.054-3.864-.327-7.605-3.084-8.356-2.757-.75-5.847 1.772-6.9 5.636-1.054 3.863.327 7.605 3.084 8.356zM56.951 24.295c-2.233-1.222-5.43.414-7.138 3.654-1.71 3.24-1.285 6.858.948 8.08 2.233 1.222 5.429-.414 7.138-3.654 1.71-3.24 1.285-6.858-.948-8.08zM15.131 27.949c-1.709-3.24-4.905-4.876-7.138-3.654-2.233 1.222-2.658 4.84-.948 8.08 1.709 3.24 4.905 4.876 7.138 3.654 2.233-1.222 2.658-4.84.948-8.08z"/>
    </g>
</svg>
