<svg xmlns="http://www.w3.org/2000/svg" width="65" height="65" viewBox="0 0 65 65">
    <g fill="none" fill-rule="evenodd">
        <ellipse cx="12.8" cy="14.5" stroke="#4E5F80" stroke-width="3.3" rx="3.8" ry="3.5"/>
        <g fill="#4E5F80" fill-rule="nonzero">
            <path d="M50.49 20.135l-4.625-4.626 6.38-6.38-2.53-2.529-6.38 6.38-4.708-4.71-2.53 2.53 4.708 4.71-6.415 6.414-4.539-4.538-2.53 2.53 4.54 4.537-6.781 6.782 2.53 2.53 6.78-6.782 4.627 4.626-6.781 6.781 2.53 2.53 6.78-6.781 4.539 4.538 2.53-2.53-4.539-4.538 6.415-6.416 4.709 4.71 2.53-2.53-4.71-4.708 6.38-6.38-2.53-2.53-6.38 6.38zm-8.942 8.944l-4.628-4.626 6.415-6.414 4.625 4.626-6.413 6.415v-.001z"/>
            <path d="M9.277 62.04c1.354.002 2.727-.552 3.759-1.59l8.557-8.609a5.38 5.38 0 0 0 1.558-3.785 5.346 5.346 0 0 0-.517-2.252c2.942-2.67 7.497-4.889 11.094-4.917l5.96-.112c2.148-.041 4.343-.482 6.476-1.3 2.86-1.094 5.616-2.863 8.012-5.269 4.268-4.293 6.537-9.73 6.544-14.876.005-3.836-1.297-7.55-4.037-10.298-2.735-2.75-6.434-4.06-10.254-4.053-5.124.005-10.536 2.283-14.812 6.572-2.394 2.407-4.155 5.174-5.245 8.048-.814 2.143-1.254 4.347-1.294 6.505l-.112 5.988c-.028 3.611-2.239 8.184-4.895 11.141a5.268 5.268 0 0 0-2.238-.517 5.294 5.294 0 0 0-3.76 1.564l-8.556 8.595 1.253 1.258 1.252 1.258 8.558-8.594c.35-.351.794-.52 1.253-.521a1.772 1.772 0 0 1 1.772 1.78c-.002.46-.17.906-.52 1.258l-8.556 8.594c-.332.334-.783.52-1.253.52-.413-.001-.81.018-1.141-.231-.043-.058-.064-.136-.112-.185-.35-.352-.518-.85-.52-1.312.002-.46.17-.933.52-1.285L6.77 54.136l-1.253-1.261A5.34 5.34 0 0 0 3.96 56.65c-.002 1.36.523 2.948 1.558 3.986a5.72 5.72 0 0 0 3.76 1.404zm19.346-35.869c.033-1.718.385-3.521 1.062-5.307.906-2.39 2.392-4.742 4.442-6.798 3.649-3.672 8.242-5.534 12.305-5.529 3.04.006 5.746 1.009 7.746 3.012 1.996 2.007 2.992 4.725 3 7.78.005 4.08-1.851 8.693-5.506 12.359-2.048 2.056-4.388 3.549-6.768 4.46-1.776.68-3.573 1.035-5.281 1.066l-.258.002c-3.043-.005-5.747-1.007-7.747-3.012-1.995-2.007-2.993-4.723-2.998-7.78l.003-.253zm-.575 9.332c.329.423.68.835 1.067 1.222.385.387.795.741 1.216 1.072a20.594 20.594 0 0 0-3.406 1.128 21.112 21.112 0 0 0 1.123-3.423zM4.998 59.587v-.212c0 .079.036.139.047.212h-.046z"/>
        </g>
    </g>
</svg>
