<svg xmlns="http://www.w3.org/2000/svg" width="65" height="65" viewBox="0 0 65 65">
    <g fill="none" fill-rule="evenodd" stroke="#4D5E81">
        <path stroke-width="3.96" d="M31.02 6.6C17.57 6.6 6.6 17.57 6.6 31.02c0 13.45 10.97 24.42 24.42 24.42a4.06 4.06 0 0 0 1.163-.194h.039a3.924 3.924 0 0 0 2.674-3.721c0-2.17-1.32-3.323-3.915-3.915-2.595-.592-5.177-3.87-5.177-6.505 0-3.1 3.08-9.264 9.092-9.264 6.013 0 6.013 3.252 11.614 5.42 5.6 2.168 8.93-2.985 8.93-6.28C55.44 17.57 44.47 6.6 31.02 6.6z"/>
        <path stroke-width="3.3" d="M16.91 38.579a3.805 3.805 0 0 1-3.798-3.8 3.805 3.805 0 0 1 3.799-3.798 3.805 3.805 0 0 1 3.798 3.799 3.805 3.805 0 0 1-3.798 3.799zM20.4 26.446a3.805 3.805 0 0 1-3.8-3.799 3.805 3.805 0 0 1 3.8-3.798 3.78 3.78 0 0 1 3.798 3.798 3.805 3.805 0 0 1-3.799 3.8zM31.795 20.36a3.805 3.805 0 0 1-3.798-3.798 3.805 3.805 0 0 1 3.798-3.799 3.805 3.805 0 0 1 3.799 3.799 3.805 3.805 0 0 1-3.799 3.798zM43.656 26.834a3.805 3.805 0 0 1-3.798-3.799 3.805 3.805 0 0 1 3.798-3.799 3.805 3.805 0 0 1 3.799 3.799 3.805 3.805 0 0 1-3.799 3.799z"/>
        <g fill="#FFF">
            <path stroke-width="3.3" d="M56.785 38.94c-.577 2.049-2.33 8.585-5.257 19.608a1.32 1.32 0 0 1-1.617.937l-5.088-1.364a1.32 1.32 0 0 1-.934-1.615c3.061-11.476 4.814-18.014 5.257-19.613.861-3.104 2.73-.458 4.44 0 1.71.458 4.098-1.143 3.2 2.047z"/>
            <path stroke-width="2.64" d="M54.454 33.32c2.112.566 4.249-.557 5.079-3.656.83-3.1-.234-5.978-2.346-6.544-.753-.202-1.476 1.908-2.733 3.103-1.257 1.195-2.625.713-2.969 1.997-.692 2.586.856 4.534 2.969 5.1z"/>
        </g>
    </g>
</svg>
